<?xml version="1.0" encoding="utf-8"?>
<!-- Generator: Adobe Illustrator 22.0.0, SVG Export Plug-In . SVG Version: 6.00 Build 0)  -->
<svg version="1.1" id="Capa_1" xmlns="http://www.w3.org/2000/svg" xmlns:xlink="http://www.w3.org/1999/xlink" x="0px" y="0px"
	 viewBox="0 0 300 300" style="enable-background:new 0 0 300 300;" xml:space="preserve">
<style type="text/css">
	.st0{fill:#3457A1;}
</style>
<g>
	<path class="st0" d="M7.6,183.2l29.5-18c0.9-0.5,2.1-0.7,3.1-0.5c1,0.2,2,0.9,2.5,1.9l2.9,4.7l25.3-14.7l51.8-59
		c5.3-6.6,14.6-11.2,24.1-12.3l-24.5-29.7c-2.8-3.3-4.1-7.5-3.6-11.8c0.4-4.3,2.5-8.2,5.8-11c6.9-5.6,17.1-4.6,22.7,2.2l47.9,58
		c0.3-0.1,0.7-0.1,1,0l23.3,3.9c9.3,1.6,17.3,7.3,21.8,15.6l21.3,39.3c1.8,3.3,2.1,7.2,0.7,10.7c-1.1,2.8-3.1,5.2-5.7,6.6l22.2,27.1
		c0,0.1,0,0.1,0.1,0.1c0.2,0.3,0.5,0.7,0.6,1.1l13.5,34c0.7,1.6,0.2,3.5-1.2,4.6c-0.7,0.7-1.7,1-2.7,1c-0.7,0-1.4-0.2-2-0.5
		l-32.1-18.7c-0.4-0.2-0.8-0.6-1.1-0.9l-10.9-13.3l-14.9,15.7c-8.4,8.9-20.2,13.8-32.2,13.5l-93.8,2.2l-13.9,8.1l2,3.3
		c1.2,2,0.6,4.5-1.4,5.7l-29.5,17.9c-0.6,0.4-1.4,0.6-2.1,0.6c-0.3,0-0.7,0-0.9-0.1c-1.1-0.2-2-0.9-2.6-1.9L6.2,188.9
		C5,186.9,5.6,184.4,7.6,183.2 M140.9,40.4c-2.8-3.4-7.7-3.9-11.1-1.1c-1.6,1.3-2.6,3.2-2.8,5.3c-0.2,2.1,0.4,4.2,1.8,5.8l1.8,2.2
		l12.2-10.1L140.9,40.4z M147.9,49l-12.2,10l22.7,27.6l0.1,0.1l0.6,0.8l0.1,0.2l39.1,47.4l0.1,0.1l0.8,0.9l29.5,35.8
		c7.5-3.5,16.4-2.3,22.8,3.2l0.9,0.7l-45.2-55L147.9,49z M194,142.8l-29.4,5.2c-2.8,2.2-12.3,14.6-9.6,24.8
		c2.5,9.4,15.5,14.9,37.8,15.6c5.4,0.2,10.6-1.2,15.2-3.9l13.6-8.3L194,142.8z M252.9,162.3c1.2-0.5,2.2-1.4,2.7-2.7
		c0.5-1.2,0.4-2.6-0.3-3.8L234,116.6c-3.3-6.1-9.1-10.2-15.9-11.4l-15.1-2.5l10.6,12.8l38.7,47.1
		C252.5,162.5,252.7,162.4,252.9,162.3 M282,223.3l-7-17.6l-9.6,7.9L282,223.3z M258.7,208.4l12.2-10l-14.2-17.3
		c0.5,1.1,0.8,2.3,0.8,3.5c0.2,2.9-0.9,5.8-2.9,7.9l-4.8,5.1L258.7,208.4z M99.9,227.4c0.6-0.3,1.3-0.5,2-0.5l95.2-2.3
		c9.9,0.2,19.4-3.7,26.1-10.9l25.4-26.9c0.5-0.5,0.7-1.1,0.7-1.8c-0.1-0.6-0.3-1.3-0.8-1.7l-2.3-1.9c-4.3-3.7-10.4-4.2-15.2-1.2
		l-18.7,11.4c-6,3.6-12.8,5.5-19.8,5.2c-27.8-1-43.3-8.9-45.9-23.5c-2.7-14.9,10.1-31,15-33c0.3-0.1,0.6-0.2,0.9-0.2l25.6-4.5
		l-34.4-41.8c-8.8-0.9-19.5,3.1-24.5,9.4l-52.4,59.6c-0.3,0.4-0.6,0.6-1,0.9l-25.8,14.9L85,236.1L99.9,227.4z M59.7,260.9l22.3-13.6
		l-41.5-68.2v0l-2.8-4.6l-22.4,13.6L59.7,260.9z"/>
	<path class="st0" d="M58.3,272.8c1.2,0,2.3-0.3,3.3-0.9L91,254c1.4-0.9,2.4-2.2,2.8-3.9c0.4-1.6,0.1-3.3-0.8-4.7l-0.9-1.5l11.6-6.8
		l93.3-2.2c12.7,0.4,24.9-4.8,33.7-14.1l13.2-14l9.4,11.4c0.6,0.6,1.1,1.1,1.7,1.4l32.1,18.7c2.1,1.2,5.3,1,7.2-0.7
		c2-1.7,2.7-4.5,1.7-7l-13.5-33.9c-0.2-0.4-0.4-0.7-0.5-1v-0.1l-0.3-0.4c0,0,0,0-0.1-0.1l-0.7-0.8l-20.2-24.6c2-1.6,3.6-3.8,4.6-6.3
		c1.5-4.1,1.2-8.6-0.9-12.4l-21.3-39.3c-4.9-8.9-13.4-15-23.3-16.6l-23.3-3.9c-0.1,0-0.2,0-0.4-0.1l-47.2-57.2
		c-3.1-3.7-7.4-6.1-12.3-6.6c-4.8-0.5-9.6,0.9-13.3,4c-3.8,3.1-6.1,7.5-6.6,12.4c-0.5,4.9,0.9,9.6,4.1,13.4L142.8,84
		c-8.9,1.8-17,6.4-21.8,12.5l-51.5,58.6l-23.3,13.5l-1.8-3c-0.8-1.4-2.2-2.4-3.8-2.8c-1.5-0.4-3.2-0.2-4.7,0.7l-29.5,18
		c-1.4,0.9-2.4,2.2-2.8,3.8c-0.4,1.6-0.1,3.3,0.7,4.7L53,269.8c0.9,1.4,2.3,2.4,3.9,2.8C57.3,272.7,57.8,272.8,58.3,272.8
		 M197.1,230.7l-94.5,2.2l-16.2,9.5l3.1,5.2c0.3,0.5,0.4,1,0.2,1.5c-0.1,0.5-0.5,1-0.9,1.3l-29.4,17.9c-0.4,0.2-0.7,0.3-1.1,0.3
		l-0.5-0.1c-0.5-0.1-0.9-0.4-1.2-0.9L8,187.8c-0.3-0.5-0.4-1-0.2-1.6c0.1-0.5,0.4-0.9,0.9-1.2l0,0l29.4-18c0.5-0.3,1-0.4,1.5-0.2
		c0.6,0.1,1,0.5,1.2,0.9l4,6.5l27.6-16.1l51.8-58.9c4.8-6.1,13.5-10.5,22.7-11.6l3.8-0.4l-26.9-32.7c-2.4-2.9-3.5-6.5-3.1-10.3
		c0.4-3.7,2.2-7.1,5.1-9.5c2.9-2.4,6.6-3.5,10.3-3.1c3.7,0.4,7.1,2.2,9.5,5l48.7,59l1.3-0.3l23.5,3.9c8.7,1.5,16.1,6.7,20.3,14.5
		l21.4,39.3c1.5,2.8,1.7,6,0.6,8.9c-0.9,2.3-2.6,4.3-4.8,5.5l-2.2,1.2l23.4,28.5v1.4l0.9,0l13.4,33.7c0.3,0.8,0.1,1.7-0.6,2.3
		c-0.6,0.6-1.7,0.6-2.3,0.3L257.1,216c-0.2-0.1-0.4-0.3-0.6-0.5l-12.3-15.1l-16.5,17.4C219.7,226.4,208.6,231.1,197.1,230.7
		 M59,263.8L85,248l-46.4-76.3l-26,15.8L59,263.8z M79.2,246.6L60.5,258l-42.1-69.2l18.8-11.4L79.2,246.6z M84.3,238.9l16.7-9.8
		c0.4-0.2,0.7-0.3,1-0.3l95.2-2.3c10.5,0.3,20.5-3.9,27.6-11.5l25.4-26.9c0.8-0.8,1.3-2.1,1.2-3.3c-0.1-1.2-0.7-2.4-1.6-3.2
		l-2.3-1.9c-4.9-4.3-12-4.8-17.6-1.4l-18.7,11.4c-5.7,3.5-12.1,5.2-18.7,4.9c-26.7-0.9-41.5-8.3-43.9-21.8
		c-2.5-13.6,9.4-28.9,13.7-30.7l0.6-0.2l28.9-5.1l-37.2-45.2l-0.9-0.1c-9.7-1-21,3.4-26.4,10.2l-52.3,59.5c-0.1,0.2-0.4,0.4-0.6,0.5
		L47,177.7L84.3,238.9z M101.9,224.7c-0.9,0-1.9,0.3-2.9,0.8l-0.1,0l-13.2,7.7l-32.9-54.1l23.9-13.8c0.6-0.4,1.1-0.8,1.6-1.4
		l52.3-59.5c4.4-5.6,13.8-9.3,21.9-8.8L184,134l-23.1,4.2c-5.6,2.3-19.4,19.2-16.5,35.4c2.9,15.7,19,24.2,47.9,25.2
		c7.4,0.3,14.6-1.6,21-5.5l18.7-11.4c4-2.5,9.1-2,12.7,1l2.3,1.9l-25.4,27.3c-6.3,6.7-15.2,10.5-24.6,10.2L101.9,224.7z
		 M286.2,228.2l-10.3-25.9L261.7,214L286.2,228.2z M274.1,209.2l3.7,9.2l-8.7-5.1L274.1,209.2z M258.4,211.4l15.4-12.7l-6.7-8.2
		l0.1,0L148.2,46l-15.5,12.7l95.5,115.8l1.5-0.7c6.8-3.2,14.8-2.1,20.5,2.8l3.7,3l0.9,2.2c0.4,0.9,0.6,1.8,0.6,2.7
		c0.1,2.4-0.7,4.7-2.3,6.4l-6.1,6.5L258.4,211.4z M268,198.1l-9,7.4l-6.4-7.8l3.6-3.8c1.6-1.8,2.8-3.9,3.2-6.3L268,198.1z
		 M237.7,167.9c-2.8,0-5.6,0.5-8.3,1.5L138.7,59.3l9-7.4l96.2,116.7C241.8,168.2,239.8,167.9,237.7,167.9 M194,190.6
		c5.2,0,10.4-1.5,15.1-4.3l15.6-9.5l-29.9-36.3l-31.1,5.5l-0.4,0.3c-2.9,2.3-13.4,15.5-10.4,27c2.7,10.4,16.5,16.4,39.8,17.2
		C193.1,190.5,193.5,190.6,194,190.6 M218.4,175.7l-11.5,7c-4.3,2.6-9.1,3.8-14,3.6c-20.9-0.7-33.7-5.7-35.9-14.1
		c-2.3-8.9,5.9-19.8,8.6-22.3l27.6-4.9L218.4,175.7z M251.8,165.4l1.9-1.1c1.8-0.7,3.3-2.1,4-3.9c0.7-1.9,0.5-3.9-0.4-5.6
		l-21.3-39.2c-3.6-6.6-9.9-11.2-17.4-12.4l-20.6-3.4L251.8,165.4z M208.2,105.7l9.6,1.6c6.2,1.1,11.4,4.8,14.4,10.3l21.3,39.3
		c0.4,0.6,0.4,1.4,0.2,2.1c-0.2,0.4-0.5,0.8-0.9,1.1L208.2,105.7z M130.2,55.6l15.4-12.7l-3.1-3.8c-3.5-4.2-9.8-4.8-14.1-1.3
		c-2,1.7-3.3,4.1-3.6,6.7c-0.3,2.7,0.5,5.3,2.2,7.3L130.2,55.6z M139.7,42.3l-9,7.4l-0.4-0.5c-1-1.2-1.4-2.7-1.3-4.3
		c0.1-1.6,0.9-3,2-3.9c2.5-2,6.1-1.7,8.2,0.8L139.7,42.3z"/>
</g>
</svg>
