<?xml version="1.0" encoding="utf-8"?>
<!-- Generator: Adobe Illustrator 22.0.0, SVG Export Plug-In . SVG Version: 6.00 Build 0)  -->
<svg version="1.1" id="Capa_1" xmlns="http://www.w3.org/2000/svg" xmlns:xlink="http://www.w3.org/1999/xlink" x="0px" y="0px"
	 viewBox="0 0 300 300" style="enable-background:new 0 0 300 300;" xml:space="preserve">
<style type="text/css">
	.st0{fill:#F39200;}
</style>
<g>
	<path class="st0" d="M105.9,179c2.9-0.8,4.6-3.7,3.8-6.6c-0.8-2.9-3.7-4.6-6.6-3.8l-61.6,16.5c-2.9,0.7-4.6,3.7-3.8,6.6
		c0.7,2.9,3.7,4.6,6.6,3.8L105.9,179z M87.1,138.5c3,0,5.4-2.4,5.4-5.4c0-3-2.4-5.4-5.4-5.4h-73c-3,0-5.4,2.4-5.4,5.4
		c0,3,2.4,5.4,5.4,5.4H87.1z M79.9,91.5c2.9,0.8,5.8-0.9,6.6-3.8c0.8-2.9-0.9-5.8-3.8-6.6L44.3,70.8c-2.9-0.8-5.9,0.9-6.6,3.8
		c-0.8,2.9,0.9,5.9,3.8,6.6L79.9,91.5z"/>
	<path class="st0" d="M275.8,84.3c1,3.6,4.8,5.8,8.4,4.8c3.7-1,5.8-4.7,4.8-8.4c-4-14.7-12.1-27.8-23.2-38.1
		c-10.9-10-24.6-17.2-40.1-20.4c-47-9.6-90.6,20.6-100.1,66.9c-4.1,19.8-1.4,41.6,10.2,62.5c7.1,12.7,12.7,20.7,17.4,27.5
		c9.5,13.6,15.5,22.2,23.6,56.7c4.4,18.6,14.5,31,26.8,37.7c7.8,4.3,16.5,6.2,25.1,6c8.6-0.2,17-2.6,24.3-7
		c11.3-6.8,20.1-18.2,22.8-33.5c0.6-3.7-1.9-7.3-5.6-7.9c-3.7-0.7-7.3,1.8-7.9,5.6c-1.9,11.1-8.2,19.4-16.3,24.2
		c-5.3,3.2-11.4,4.9-17.6,5.1c-6.2,0.2-12.5-1.3-18.2-4.4c-9-5-16.6-14.3-20-28.8c-8.7-37.1-15.3-46.5-25.8-61.4
		c-4.6-6.6-10-14.3-16.7-26.3c-9.9-17.8-12.2-36.3-8.8-53c7.9-38.9,44.5-64.3,84-56.2c13,2.7,24.4,8.7,33.5,17.1
		C265.8,61.3,272.5,72.2,275.8,84.3 M230.9,140.5c2.6,2.2,6.5,2.1,9-0.2c4.3-3.6,8-7.9,10.8-12.7c2.9-4.9,4.8-10.3,5.8-15.9
		c2.2-13-0.9-25.6-7.9-35.6c-7-10-17.7-17.3-30.6-19.6c-25.2-4.4-49.2,12.1-54.5,37c-0.8,3.7,1.5,7.3,5.2,8.1
		c3.7,0.8,7.4-1.6,8.1-5.3c3.8-17.7,20.8-29.5,38.8-26.4c9.2,1.6,16.8,6.8,21.7,13.9c2.1,2.9,3.7,6.3,4.7,9.8
		c-3.6-1.6-7.4-2.7-11.2-3.4c-13.3-2.3-26.4,1-36.7,8.3c-10.3,7.3-17.8,18.5-20.2,31.9c-1.5,8.7-0.9,17.9,2,26.3
		c2.7,7.9,7.5,15.1,14.5,20.3c4.1,3.1,8,4.9,11.9,6.5c7.1,3.2,13.4,6,14.5,21.1c0.4,5.7,2.6,10.8,6,14.8c3.5,4.1,8.3,6.9,13.8,7.9
		c6.5,1.1,12.8-0.5,17.8-4.1c5-3.5,8.6-9,9.8-15.5c0.5-2.7,0.5-5.4,0-8.1c-0.4-2.6-1.3-5.2-2.7-7.6c-1.8-3.3-6-4.5-9.3-2.7
		c-3.3,1.8-4.5,6-2.7,9.3c0.6,1,0.9,2.1,1.1,3.3c0.2,1.1,0.2,2.3-0.1,3.5c-0.5,2.8-2,5.1-4.1,6.6c-2.1,1.5-4.8,2.2-7.5,1.7
		c-2.3-0.4-4.3-1.6-5.8-3.2c-1.5-1.8-2.5-4.1-2.7-6.8c-1.6-23.3-11.5-27.7-22.6-32.7c-3.2-1.4-6.5-2.9-9.2-5
		c-4.6-3.5-7.8-8.3-9.7-13.8c-2.1-6.1-2.5-12.9-1.4-19.5c1.7-9.7,7.2-17.9,14.6-23.1c7.4-5.2,16.8-7.6,26.4-6
		c3.2,0.6,6.3,1.5,9.1,2.9c1.9,0.9,3.7,1.9,5.3,3.2c-0.7,3.9-2.1,7.6-4.1,10.9c-1.3,2.2-2.8,4.2-4.5,6.1c-1-0.4-2.1-0.7-3.2-0.8
		c-5-0.9-9.9,0.4-13.7,3.1c-3.9,2.7-6.7,6.9-7.5,11.9c-0.9,5,0.4,9.9,3.1,13.7c2.7,3.9,6.9,6.6,11.9,7.5c3.7,0.6,7.3-1.9,7.9-5.6
		c0.6-3.7-1.8-7.3-5.6-7.9c-1.3-0.2-2.3-0.9-3-1.9c-0.7-1-1-2.2-0.8-3.5c0.2-1.3,0.9-2.3,1.9-3c1-0.7,2.2-1,3.5-0.8
		c0.4,0.1,0.8,0.2,1.1,0.4C230.3,140,230.6,140.2,230.9,140.5"/>
</g>
</svg>
