<?xml version="1.0" encoding="utf-8"?>
<!-- Generator: Adobe Illustrator 22.0.0, SVG Export Plug-In . SVG Version: 6.00 Build 0)  -->
<svg version="1.1" id="Capa_1" xmlns="http://www.w3.org/2000/svg" xmlns:xlink="http://www.w3.org/1999/xlink" x="0px" y="0px"
	 viewBox="0 0 300 300" style="enable-background:new 0 0 300 300;" xml:space="preserve">
<style type="text/css">
	.st0{fill:#8DC63F;}
</style>
<path class="st0" d="M122.1,221c-5.2,10.8-13,18.2-24.6,21c-4.7,1.2-9.7,1.6-14.6,1.8c-10.4,0.3-20.7,0.1-31.1,0.1
	c-4,0-7,2.7-7.1,6.4c-0.1,3.9,2.7,6.9,6.9,6.8c13.9-0.1,27.8,0.4,41.6-0.6c13.4-1,24.8-7.4,33.4-18c4.8-5.9,8.4-12.4,10.1-19.8
	c1-4.2-0.9-7.1-5.2-8.6c-9.6-3.2-17.5-8.8-22.6-17.8c-3.7-6.6-4.5-13.7-4.2-21c0.1-1.7,1.2-1.5,2.2-1.5c7.9,0,15.9,0,23.8,0
	c3.1,0,6.2,0,9.3-0.1c4.2-0.1,7.7-1.9,7.6-7.7c-0.2-9.3,0-18.6-0.2-27.9c0-1.9,0.6-2.4,2.5-2.4c6,0,12.1,0.1,18.1-0.5
	c8.2-0.8,15.5-9.5,15.9-17.7c0.3-5.4-1.9-9.9-4-14.4c-10.8-24.1-21.7-48.2-32.5-72.2c-1.6-3.5-4.2-5.2-7.6-4.7
	c-2.7,0.3-5.1,2.7-5.4,5.6c-0.1,1.4,0.2,3,0.8,4.4c11.5,25.6,23,51.2,34.6,76.8c2.3,5-0.7,9.6-6.2,9.6c-7.4,0-14.7,0-22.1,0
	c-4.5,0-7.2,2.7-7.2,7.2c0,8.7,0.1,17.5,0.2,26.1c0,0.2,0,0.5-0.1,0.7c-0.4,4.4-0.4,4.3-4.9,4.3c-10.1,0-20.3,0-30.4,0
	c-3.1,0-5.5,1.8-6.3,4.9c-1.5,6.4-1.9,13-1.1,19.6c2.3,18.5,12.7,31.1,28.9,39.2C121.1,220.4,121.4,220.7,122.1,221"/>
<path class="st0" d="M237.1,138.4c-4.8,0-8.2,4.7-6.2,8.7c3.4,6.8,5.8,13.9,7.7,21.2c3.1,11.8,4.2,23.8,2.7,35.9
	c-2.2,17.6-8.5,33.4-19.4,47.4c-3.9,5-8.7,9.4-13,14.1c-1.6,1.7-2.7,3.7-2,6.2c0.7,2.7,2.4,4.5,5.2,5.1c2.1,0.5,4-0.1,5.7-1.5
	c8.9-7.7,16.3-16.8,22.3-26.9c6-10.1,10.2-20.8,12.7-32.3c2.1-9.9,2.7-19.8,2.3-30c-0.4-7.9-2.5-15.3-4-22.9
	c-1.4-6.8-4.2-13.1-7.2-19.2C242.5,141.3,240.6,138.5,237.1,138.4"/>
<path class="st0" d="M228,192.4c0-11.9-2.3-23.3-6.9-34.2c-1.4-3.4-4.1-5.4-7-5.2c-2.8,0.1-5.5,2.1-6,5c-0.3,1.7,0,3.7,0.7,5.2
	c3.9,9.6,6.2,19.6,6,30c-0.4,18.7-7,34.9-19.6,48.7c-0.7,0.7-1.4,1.4-2,2.1c-2.7,3.1-2.6,6.9,0.2,9.6c2.7,2.6,6.7,2.4,9.6-0.5
	c7.8-7.7,13.8-16.7,18.2-26.8C225.7,215.6,228,203.8,228,192.4"/>
<path class="st0" d="M198.3,174c-0.7-3.6-3.2-5.6-6.2-5.5c-3.9,0-6.2,1.6-7,5c-0.2,1.1-0.2,2.3,0.2,3.4c2.5,8.2,3,16.5,1.2,24.9
	c-1.6,7.4-4.7,14.1-9.4,20.2c-3,3.9-2.2,8.5,1.8,10.6c2.8,1.5,6,0.8,8.3-2c3.9-4.8,6.9-10.1,9.2-15.8c2.9-7.5,4.4-15.2,4.4-23.2
	C201,191.4,199.5,179.7,198.3,174"/>
<path class="st0" d="M88.2,73.9c8.3,0,14.8-6.6,14.8-15.1c0-8-6.7-14.6-14.8-14.6c-8.2,0-14.8,6.7-14.8,14.9
	C73.4,67.2,80.1,73.9,88.2,73.9"/>
</svg>
