<?xml version="1.0" encoding="utf-8"?>
<!-- Generator: Adobe Illustrator 22.0.0, SVG Export Plug-In . SVG Version: 6.00 Build 0)  -->
<svg version="1.1" id="Capa_1" xmlns="http://www.w3.org/2000/svg" xmlns:xlink="http://www.w3.org/1999/xlink" x="0px" y="0px"
	 viewBox="0 0 300 300" style="enable-background:new 0 0 300 300;" xml:space="preserve">
<style type="text/css">
	.st0{fill:#0075FC;}
</style>
<g>
	<path class="st0" d="M286.2,224.2c-0.1-4.3-1.8-8.1-4.3-11.6c-5.3-7.2-12.6-10.4-21.3-10.5c-2.6,0-2.7-0.2-2.7-2.8
		c0-10.4,0-20.8,0-31.1c0-1.8-0.7-2.5-2.5-2.6c-18.2-0.4-36.2,0.2-54,4.8c-7.5,1.9-15,4.1-22.3,6.8c-7.3,2.7-14.1,6.5-20.6,10.9
		c-1.9,1.3-3.1,2.8-2.9,5.4c0.3,2.6,0.1,5.2,0.1,7.9c0,14.4,0,28.7,0,43.1h0c0,17.5,0,35,0,52.5c0,0.5,0.2,1.3,0.5,1.4
		c0.4,0.2,1.2,0.2,1.7-0.1c6.6-4.3,13.8-7.5,21.2-10.2c8.2-3,16.6-5.3,25.2-7c12-2.4,24.2-3.5,36.4-4c4.9-0.2,9.9,0,14.8,0.1
		c1.7,0.1,2.5-0.6,2.4-2.3c-0.1-1.5-0.1-3,0-4.5c0.1-2.3,0.4-2.6,2.6-2.6c3.7,0,7.2-0.3,10.6-1.8c8.2-3.6,13.8-9.5,14.8-18.5
		C286.6,239.8,286.3,231.9,286.2,224.2 M249.9,268.8c0,0-55.1-2-86.2,18.1c-0.3-16.1-0.5-70-0.2-89c34.9-28,86.4-21.4,86.4-21.4
		v28.8c-2,1-3.9,2.3-5.5,3.7c-4.4,4-7.1,9.4-7.1,15.4V247c0,8.3,5.1,15.5,12.7,19.1V268.8z M276.5,243.8
		c-0.2,9.1-9.6,16.3-18.4,13.9c-6.5-1.7-11.7-7.3-11.6-14.5c0.1-5.5,0.2-11,0-16.5c-0.2-8.1,7.5-15.7,16.9-14.6
		c6.8,0.7,13.3,7.3,13.1,14.5c-0.1,2.7,0,5.5,0,8.2C276.5,237.9,276.6,240.8,276.5,243.8"/>
	<path class="st0" d="M145.3,192.5c0-1.4-0.3-2.6-1.6-3.5c-5.8-4.2-12.1-7.7-18.7-10.4c-6.6-2.6-13.4-5-20.2-6.8
		c-7.2-1.9-14.6-3.2-22-4.5c-12.3-2.1-24.8-1.9-37.2-1.7c-2.2,0-2.4,0.3-2.4,2.5c0,10.5,0,21,0,31.5c0,1.8-0.9,2.5-2.5,2.5
		c-4.2-0.1-8.3,0.7-12.1,2.6c-6.9,3.4-11.6,8.7-13.2,16.2c-0.7,3.6-0.9,7.4-0.9,11.1c0,5.7-0.6,11.3,0.9,17c1.4,5.6,4.5,10.1,9,13.6
		c4.7,3.6,10,5.2,15.9,5c2.4-0.1,3,0.6,3,3c0,1.3,0,2.7-0.1,4.1c0,1.8,0.5,2.4,2.4,2.3c12-0.6,23.8,0.1,35.7,1.4
		c6.2,0.7,12.2,1.8,18.3,3c4.6,0.9,9.3,2.1,13.8,3.5c5.1,1.6,10.2,3.5,15.1,5.6c4.9,2.1,9.6,4.8,14.3,7.2c0.7,0.3,1.4,0.5,2,0.7
		c0.2-0.7,0.7-1.5,0.7-2.2c0-17.3,0-34.6,0-52h0C145.3,227.1,145.3,209.8,145.3,192.5 M37.7,258.1c-7-0.6-13-6.7-13.2-13.7
		c-0.2-6.3-0.1-12.7,0.1-19.1c0.2-5.8,5.4-11.6,11.2-12.7c6.9-1.3,12.6,0.6,16.3,6.6c1.2,2,2,4.3,2.3,6.6c0.4,3,0.1,6.1,0.1,9.2h0.1
		c0,2.7,0.1,5.4,0,8C54.3,252.1,46.9,258.9,37.7,258.1 M137.3,286.9c-31.1-20-86.2-18.1-86.2-18.1v-2.7c7.5-3.7,12.6-10.9,12.6-19.1
		v-22.6c0-6-2.7-11.5-7.1-15.4c-1.6-1.5-3.5-2.7-5.5-3.7v-28.8c0,0,51.5-6.6,86.4,21.4C137.8,217,137.6,270.8,137.3,286.9"/>
	<path class="st0" d="M244.2,153.4c-1-1.1-2.1-2.1-3.2-3.1c-7.9-7.2-16.9-12.8-26.5-17.4c-7.8-3.8-15.8-7.3-23.7-10.9
		c-1.2-0.5-1.4-1.3-0.9-2.4c0.3-0.6,0.6-1.2,1-1.8c4.2-6.6,7.1-13.8,9.1-21.4c0.9-3.5,2-7.1,3.1-10.5c1-2.9,2.3-5.6,3.4-8.5
		c2.8-7.5,4.1-15.3,4.5-23.4c-0.5-3.8-1-7.7-1.6-11.5c-0.7-4.4-3.1-7.6-7-9.8c-1-0.5-2-1.8-2.2-2.9c-0.6-4.8-2.8-8.8-6.1-12.2
		c-7.8-8.1-17.9-11.9-28.7-13.9c-11.1-2.1-22.3-1.9-33.2,1.3c-4.5,1.3-8.8,3.1-13,5.2c-6.7,3.5-12.2,8.6-16.8,14.6
		c-8,10.1-11.2,21.6-9.7,34.3c0.7,6.2,2.3,12.2,4,18.3c1.9,6.8,3,13.8,4.9,20.5c1,4,2.6,7.8,4.3,11.5c1.5,3.2,3.3,6.3,5,9.4
		c0.8,1.5,0.5,2.5-0.8,3.1c-2.4,1-4.9,2-7.2,3.1c-6.9,3.3-14,6.3-20.7,10C73,140,64.3,145.7,57,153.2c-0.4,0.4-0.5,1.1-0.8,1.7
		c0.6,0.2,1.2,0.7,1.8,0.7c2.1,0.1,4.1,0,6.2,0.3c1.8,0.2,3.2-0.2,4.6-1.2c4-2.7,7.8-5.6,11.9-8.1c5.2-3.1,10.5-6,15.9-8.7
		c5.4-2.7,11-5.1,16.5-7.4c2.6-1.1,4.8-2.4,7.8,0.4c9.2,8.7,20.2,13.1,33.1,12c7.9-0.6,14.9-3.3,21.3-7.9c2.2-1.6,4.2-3.5,6.4-5.2
		c0.7-0.5,1.8-1.1,2.5-0.9c5,1.9,10.1,4,15,6.2c5,2.3,9.9,4.7,14.7,7.4c5.5,3.2,10.7,6.8,16.1,10.2c1.8,1.1,3.5,2.7,5.4,3
		c2.7,0.5,5.6,0,8.4-0.2c0.4,0,1.1-0.4,1.1-0.7C244.8,154.4,244.5,153.8,244.2,153.4 M168,128.6c-3.6,2.2-7.4,3.8-11.5,4.8
		c-8.4,2.2-15.7-0.3-22.8-4.5c-5-3-9.5-6.6-12.9-11.3c-2.7-3.8-5.2-7.8-7-12.1c-2.3-5.6-4.2-11.5-5.7-17.4
		c-1.6-6.2-2.4-12.6-1.3-19.1c0.7-3.8,1.4-7.6,2.2-11.3c0.4-1.8,1.6-3.1,3.6-3.4c2.2-0.3,4.5-0.7,6.7-0.7c11-0.3,22-0.2,33-0.9
		c8.6-0.5,17.1-1.9,25.6-3.1c2.6-0.4,5.1-1.4,7.5-2.3c3-1.1,4-0.6,4.9,2.5c2.2,7.7,3.5,15.6,3.5,24c0.8,7.1-0.9,14.1-2.9,21.2
		c-1.6,5.8-3.9,11.3-6.8,16.5C180.3,118.6,174.8,124.3,168,128.6"/>
</g>
</svg>
